<?xml version="1.0" encoding="utf-8"?>
<!-- Generator: Adobe Illustrator 16.0.0, SVG Export Plug-In . SVG Version: 6.00 Build 0)  -->
<!DOCTYPE svg PUBLIC "-//W3C//DTD SVG 1.1//EN" "http://www.w3.org/Graphics/SVG/1.1/DTD/svg11.dtd">
<svg version="1.1" id="Layer_1" xmlns="http://www.w3.org/2000/svg" xmlns:xlink="http://www.w3.org/1999/xlink" x="0px" y="0px"
	 width="619px" height="230px" viewBox="0 0 619 230" enable-background="new 0 0 619 230" xml:space="preserve">
<g>
	<path fill="#1B1464" d="M379.444,198.822h21.909c0.743,0,1.327-0.114,1.753-0.342c0.424-0.228,0.757-0.518,0.995-0.873
		c0.239-0.353,0.385-0.745,0.438-1.176c0.053-0.429,0.08-0.821,0.08-1.176c0-0.657-0.174-1.315-0.519-1.973
		c-0.346-0.657-1.049-0.986-2.11-0.986h-12.509c-1.912,0-3.532-0.291-4.859-0.873c-1.328-0.581-2.39-1.391-3.187-2.428
		c-0.797-1.036-1.382-2.276-1.753-3.719c-0.372-1.441-0.558-3.021-0.558-4.742c0-2.528,0.305-4.577,0.916-6.146
		c0.61-1.567,1.54-2.782,2.788-3.643c1.248-0.859,2.841-1.441,4.78-1.745c1.938-0.304,4.263-0.455,6.972-0.455h17.208
		c0.53,0,0.797,0.253,0.797,0.759v7.739c0,0.506-0.267,0.759-0.797,0.759h-20.873c-0.851,0-1.462,0.292-1.833,0.873
		c-0.372,0.582-0.558,1.227-0.558,1.935c0,0.658,0.199,1.315,0.598,1.973c0.398,0.658,0.996,0.986,1.793,0.986h11.632
		c2.071,0,3.85,0.216,5.337,0.646c1.486,0.43,2.695,1.15,3.625,2.162c0.929,1.013,1.62,2.391,2.071,4.136s0.678,3.934,0.678,6.563
		c0,0.759-0.119,1.758-0.358,2.997c-0.239,1.24-0.678,2.454-1.314,3.642c-0.638,1.189-1.527,2.214-2.669,3.073
		c-1.143,0.861-2.617,1.29-4.422,1.29h-26.052c-0.531,0-0.797-0.253-0.797-0.759v-7.739
		C378.647,199.075,378.913,198.822,379.444,198.822z"/>
	<path fill="#1B1464" d="M433.937,198.063c0,0.506,0.266,0.759,0.797,0.759h6.692c0.425,0.051,0.638,0.303,0.638,0.759v7.739
		c0,0.506-0.267,0.759-0.797,0.759h-10.038c-2.02,0-3.692-0.581-5.02-1.745c-1.328-1.163-1.991-2.529-1.991-4.098v-23.674
		c0-0.505-0.267-0.759-0.797-0.759h-4.223c-0.531,0-0.797-0.253-0.797-0.759v-7.739c0-0.506,0.266-0.759,0.797-0.759h4.223
		c0.53,0,0.797-0.253,0.797-0.759v-9.485c0-0.505,0.265-0.759,0.796-0.759h8.127c0.53,0,0.796,0.254,0.796,0.759v9.485
		c0,0.506,0.266,0.759,0.797,0.759h6.533c0.53,0,0.797,0.253,0.797,0.759v7.739c0,0.506-0.267,0.759-0.797,0.759h-6.533
		c-0.531,0-0.797,0.254-0.797,0.759V198.063z"/>
	<path fill="#1B1464" d="M487.075,192.752c0,3.035-0.279,5.539-0.837,7.512s-1.407,3.541-2.549,4.704
		c-1.144,1.165-2.59,1.974-4.342,2.429c-1.753,0.455-3.852,0.683-6.294,0.683h-14.182c-2.443,0-4.461-0.417-6.055-1.252
		c-1.593-0.835-2.868-1.922-3.824-3.263c-0.956-1.34-1.62-2.857-1.991-4.553c-0.372-1.694-0.558-3.427-0.558-5.197v-13.355
		c0-1.82,0.331-3.464,0.996-4.932c0.663-1.467,1.553-2.719,2.669-3.756c1.115-1.036,2.43-1.833,3.943-2.391
		c1.514-0.556,3.119-0.834,4.819-0.834h16.094c1.434,0,2.88,0.253,4.342,0.759c1.46,0.506,2.761,1.252,3.903,2.238
		c1.142,0.986,2.071,2.176,2.788,3.566c0.718,1.392,1.076,2.997,1.076,4.818V192.752z M477.275,181.598
		c0-0.607-0.199-1.15-0.597-1.632c-0.398-0.479-0.917-0.884-1.554-1.214c-0.638-0.328-1.354-0.569-2.151-0.721
		s-1.594-0.228-2.39-0.228h-8.685c-0.69,0-1.381,0.064-2.071,0.189c-0.69,0.127-1.314,0.342-1.872,0.646
		c-0.558,0.303-1.023,0.709-1.394,1.214c-0.373,0.506-0.559,1.113-0.559,1.821v12.141c0,1.012,0.226,1.847,0.678,2.504
		c0.45,0.657,1.021,1.176,1.713,1.555c0.689,0.38,1.434,0.634,2.23,0.759c0.797,0.127,1.54,0.19,2.23,0.19h7.33
		c1.912,0,3.571-0.43,4.979-1.29c1.406-0.859,2.11-1.947,2.11-3.263v-6.07V181.598z"/>
	<path fill="#1B1464" d="M514.003,168.547c0.53,0,0.796,0.253,0.796,0.759v7.739c0,0.506-0.266,0.759-0.796,0.759h-7.648
		c-0.479,0-0.904,0.127-1.274,0.379c-0.373,0.254-0.705,0.545-0.996,0.873c-0.293,0.33-0.518,0.683-0.678,1.063
		c-0.159,0.379-0.238,0.721-0.238,1.024v26.178c0,0.506-0.267,0.759-0.797,0.759h-8.923c-0.531,0-0.797-0.253-0.797-0.759v-28.834
		c0-1.314,0.279-2.579,0.837-3.794c0.558-1.214,1.314-2.276,2.271-3.187s2.071-1.632,3.346-2.162
		c1.274-0.531,2.629-0.797,4.063-0.797H514.003z"/>
	<path fill="#1B1464" d="M526.909,193.511c0,0.759,0.211,1.454,0.637,2.086c0.425,0.634,0.996,1.189,1.713,1.67
		c0.718,0.481,1.58,0.86,2.59,1.138c1.008,0.279,2.071,0.418,3.187,0.418h18.961c0.53,0,0.797,0.253,0.797,0.759v7.739
		c0,0.506-0.267,0.759-0.797,0.759h-13.464c-4.462,0-8.193-0.354-11.193-1.063c-3.001-0.708-5.418-1.833-7.25-3.376
		s-3.135-3.503-3.903-5.881c-0.771-2.377-1.155-5.235-1.155-8.574c0-4.047,0.649-7.398,1.951-10.054c1.301-2.656,3-4.768,5.1-6.336
		c2.097-1.567,4.461-2.668,7.09-3.301c2.629-0.632,5.271-0.948,7.927-0.948c3.293,0,6.135,0.367,8.525,1.1
		c2.39,0.734,4.354,1.771,5.896,3.111c1.539,1.341,2.668,2.973,3.386,4.895c0.717,1.923,1.075,4.072,1.075,6.449v7.892
		c0,0.506-0.267,0.759-0.797,0.759h-29.478C527.174,192.752,526.909,193.006,526.909,193.511z M548.181,183.874
		c0.53,0,0.796-0.253,0.796-0.759c0-1.922-0.93-3.452-2.788-4.591c-1.859-1.138-4.461-1.707-7.808-1.707
		c-1.063,0-2.244,0.151-3.545,0.455c-1.302,0.304-2.55,0.721-3.744,1.252c-1.195,0.531-2.191,1.189-2.988,1.973
		c-0.796,0.785-1.194,1.658-1.194,2.618c0,0.506,0.265,0.759,0.796,0.759H548.181z"/>
</g>
<g>
	<path fill="#1B1464" d="M148.944,145.203c0,1.001-0.525,1.504-1.579,1.504H90.534c-3.789,0-7.287-0.602-10.498-1.805
		c-3.209-1.202-5.999-2.932-8.367-5.187c-2.368-2.256-4.235-4.988-5.604-8.195c-1.367-3.209-2.052-6.817-2.052-10.825
		c0-5.413,0.474-9.698,1.421-12.855s2.027-5.563,3.236-7.217c1.211-1.654,2.289-2.759,3.236-3.309
		c0.947-0.552,1.421-0.977,1.421-1.277c0-0.503-0.814-1.556-2.447-3.158c-1.63-1.604-3.446-3.458-5.446-5.563
		c-0.735-0.902-1.394-1.955-1.974-3.158c-0.577-1.202-1.078-2.431-1.5-3.684c-0.419-1.254-0.71-2.507-0.868-3.759
		c-0.158-1.254-0.237-2.33-0.237-3.232c0-4.812,0.474-9.322,1.42-13.532c0.947-4.21,2.605-7.87,4.973-10.976
		c2.368-3.108,5.5-5.563,9.393-7.367c3.895-1.804,8.84-2.707,14.839-2.707h55.885c1.053,0,1.579,0.5,1.579,1.503V145.203z
		 M126.054,59.951c0-1.003-0.525-1.503-1.579-1.503h-33.31c-1.788,0-3.261,0.451-4.42,1.353c-1.157,0.902-2.104,2.03-2.842,3.383
		c-0.735,1.353-1.236,2.782-1.5,4.285c-0.262,1.504-0.395,2.806-0.395,3.909c0,2.305,0.291,4.234,0.869,5.789
		c0.58,1.553,1.317,2.781,2.21,3.684c0.896,0.902,1.895,1.527,3,1.88c1.105,0.35,2.131,0.526,3.078,0.526h33.31
		c1.053,0,1.579-0.503,1.579-1.504V59.951z M126.054,105.059c0-1.004-0.525-1.504-1.579-1.504H97.164
		c-4.208,0-7.208,0.876-8.999,2.631c-1.788,1.753-2.684,4.937-2.684,9.548c0,4.309,1.16,7.292,3.473,8.946
		c2.316,1.654,5.052,2.48,8.209,2.48h27.311c1.053,0,1.579-0.502,1.579-1.503V105.059z"/>
</g>
<g>
	<path fill="#FBB03B" d="M163.475,39.797h58.726c2.945,0,5.842,0.552,8.683,1.654c2.842,1.104,5.629,3.007,8.367,5.714
		c4.736,4.712,7.262,11.829,7.578,21.35v3.459c0,8.821-1.105,15.237-3.315,19.245c-1.476,2.007-3,3.834-4.578,5.488
		c-1.579,1.653-3.737,3.184-6.473,4.586c-0.106,0.101-0.237,0.251-0.395,0.451c-0.158,0.202-0.237,0.451-0.237,0.752
		c0,0.201,0.052,0.401,0.158,0.601c2.42,3.008,4.129,5.639,5.131,7.895c0.999,2.255,1.919,4.585,2.763,6.991l8.683,25.41
		c0.209,0.804,0.604,1.529,1.184,2.18c0.577,0.653,0.868,1.079,0.868,1.278c0,0.503-0.315,0.752-0.947,0.752h-21.785
		c-0.632,0-1.317-0.526-2.053-1.579c-0.737-1.052-1.211-1.929-1.421-2.631l-9.787-26.313c-1.476-5.612-4.475-8.721-8.999-9.322
		h-19.26c-1.053,0-1.578,0.503-1.578,1.504v36.837c0,1.004-0.528,1.504-1.579,1.504h-19.733c-1.053,0-1.579-0.5-1.579-1.504V41.301
		C161.896,40.3,162.422,39.797,163.475,39.797z M186.365,59.343c-1.053,0-1.578,0.503-1.578,1.503v24.508
		c0,1.004,0.577,1.504,1.736,1.504h28.574c1.473,0,3.103-0.7,4.894-2.104c1.473-1.203,2.604-2.956,3.395-5.263
		c0.789-2.305,1.184-4.861,1.184-7.668c0-1.403-0.079-2.681-0.236-3.834c-0.158-1.151-0.501-2.229-1.026-3.233
		c-1.685-3.308-3.686-5.112-5.999-5.413H186.365z"/>
	<path fill="#FBB03B" d="M291.188,48.668c1.263-3.909,3.576-6.364,6.946-7.367c3.366-1.001,7.945-1.504,13.734-1.504
		c5.999,0,10.708,0.503,14.129,1.504c3.419,1.003,5.762,3.458,7.025,7.367l31.73,98.032c0,0.602-0.37,0.902-1.104,0.902h-20.681
		c-1.054,0-1.736-0.451-2.053-1.354l-8.366-26.012c-0.316-1-1.002-1.503-2.053-1.503h-37.099c-1.054,0-1.736,0.552-2.053,1.653
		l-8.366,25.711c-0.316,1.004-1.002,1.504-2.053,1.504h-20.522c-0.844,0-1.263-0.301-1.263-0.902L291.188,48.668z M313.763,62.05
		c-0.316-1.102-0.58-1.828-0.79-2.18c-0.212-0.35-0.579-0.526-1.104-0.526c-0.528,0-1.105,0.902-1.736,2.707l-11.051,34.281
		c0,0.202-0.027,0.353-0.079,0.451c-0.055,0.101-0.079,0.202-0.079,0.301c0,0.702,0.419,1.053,1.263,1.053h23.522
		c0.841,0,1.263-0.351,1.263-1.053c0-0.099-0.027-0.2-0.079-0.301c-0.054-0.099-0.079-0.249-0.079-0.451L313.763,62.05z"/>
	<path fill="#FBB03B" d="M400.592,125.35c0.315,1.104,0.577,1.83,0.789,2.181c0.209,0.353,0.577,0.526,1.104,0.526
		c0.525,0,1.105-0.902,1.737-2.707l27.152-84.049c0.316-1.001,0.999-1.504,2.053-1.504h20.522c0.841,0,1.263,0.301,1.263,0.902
		l-32.047,98.032c-1.263,3.909-3.579,6.367-6.946,7.367c-3.369,1.004-7.947,1.504-13.734,1.504c-5.999,0-10.71-0.5-14.129-1.504
		c-3.421-1-5.762-3.458-7.024-7.367l-31.731-98.032c0-0.602,0.367-0.902,1.104-0.902h20.681c1.051,0,1.736,0.451,2.053,1.354
		L400.592,125.35z"/>
	<path fill="#FBB03B" d="M458.214,93.625c0-5.914,0.052-11.025,0.157-15.337c0.104-4.309,0.42-7.818,0.947-10.524
		c0.842-3.91,1.736-7.417,2.684-10.525c0.947-3.106,2.211-5.662,3.789-7.668c2.104-2.605,4.736-4.887,7.894-6.841
		s6.524-3.332,10.104-4.135c2.525-0.5,5.841-0.801,9.945-0.902c4.104-0.099,8.998-0.15,14.682-0.15s10.577,0.052,14.682,0.15
		c4.104,0.101,7.42,0.402,9.945,0.902c3.577,0.803,6.946,2.18,10.104,4.135s5.787,4.236,7.894,6.841
		c1.579,2.006,2.842,4.562,3.789,7.668c0.947,3.108,1.84,6.616,2.684,10.525c0.525,2.706,0.841,6.216,0.947,10.524
		c0.104,4.312,0.158,9.423,0.158,15.337v0.901c0,5.916-0.055,11.028-0.158,15.337c-0.106,4.311-0.422,7.818-0.947,10.524
		c-0.844,3.909-1.736,7.42-2.684,10.525c-0.947,3.108-2.21,5.664-3.789,7.668c-2.106,2.607-4.736,4.887-7.894,6.842
		c-3.157,1.954-6.526,3.331-10.104,4.135c-2.525,0.5-5.841,0.801-9.945,0.901c-4.104,0.099-8.998,0.15-14.682,0.15
		s-10.577-0.052-14.682-0.15c-4.104-0.101-7.42-0.401-9.945-0.901c-3.579-0.804-6.946-2.181-10.104-4.135
		c-3.157-1.955-5.789-4.234-7.894-6.842c-1.578-2.004-2.842-4.56-3.789-7.668c-0.947-3.105-1.842-6.616-2.684-10.525
		c-0.527-2.706-0.844-6.214-0.947-10.524c-0.105-4.309-0.157-9.421-0.157-15.337V93.625z M499.101,58.517
		c-2.947,0.15-5.474,0.477-7.577,0.977c-3.789,0.902-6.473,2.683-8.052,5.338c-1.578,2.657-2.367,6.641-2.367,11.953v34.582
		c0,5.314,0.789,9.299,2.367,11.954c1.579,2.657,4.263,4.436,8.052,5.337c2.104,0.503,4.63,0.827,7.577,0.978
		c2.945,0.15,6.051,0.226,9.314,0.226c3.261,0,6.366-0.075,9.314-0.226c2.945-0.15,5.471-0.475,7.577-0.978
		c3.789-0.901,6.473-2.68,8.052-5.337c1.578-2.655,2.367-6.64,2.367-11.954V76.784c0-5.312-0.789-9.296-2.367-11.953
		c-1.579-2.655-4.263-4.436-8.052-5.338c-2.106-0.5-4.632-0.827-7.577-0.977c-2.948-0.15-6.054-0.226-9.314-0.226
		C505.151,58.291,502.046,58.366,499.101,58.517z"/>
</g>
<g>
	<path fill="#FBB03B" d="M34.991,123.251c0,5.512,0.632,10.022,1.895,13.532c1.475,4.008,4.001,7.868,7.578,11.578l2.21,2.255
		c0.106,0.099,0.158,0.249,0.158,0.451c0,0.301-0.21,0.451-0.631,0.451H23.941c-0.841,0-1.604-0.353-2.289-1.053
		c-0.684-0.702-1.236-1.405-1.658-2.104c-1.895-3.309-3.446-6.442-4.657-9.397c-1.208-2.958-1.815-6.142-1.815-9.548V56.192
		c0-3.409,0.553-6.642,1.658-9.698c1.105-3.059,2.711-6.141,4.815-9.247c0.422-0.602,0.974-1.278,1.658-2.03
		c0.686-0.752,1.448-1.128,2.289-1.128H46.2c0.421,0,0.631,0.15,0.631,0.451c0,0.202-0.052,0.353-0.158,0.451l-2.21,2.255
		c-3.577,3.707-6.103,7.567-7.578,11.577c-1.263,3.407-1.895,7.917-1.895,13.532V123.251z"/>
</g>
<g>
	<path fill="#FBB03B" d="M584.009,63.252c0-5.511-0.632-10.022-1.895-13.532c-1.476-4.008-4.001-7.868-7.578-11.578l-2.21-2.255
		c-0.105-0.099-0.157-0.249-0.157-0.451c0-0.301,0.209-0.451,0.631-0.451h22.26c0.841,0,1.603,0.353,2.289,1.053
		c0.683,0.703,1.235,1.405,1.657,2.105c1.895,3.308,3.446,6.442,4.657,9.397c1.209,2.958,1.815,6.141,1.815,9.547v73.224
		c0,3.409-0.553,6.642-1.657,9.698c-1.105,3.059-2.711,6.141-4.815,9.247c-0.422,0.601-0.975,1.277-1.657,2.029
		c-0.687,0.752-1.448,1.128-2.289,1.128H572.8c-0.422,0-0.631-0.15-0.631-0.451c0-0.202,0.052-0.353,0.157-0.451l2.21-2.255
		c3.577-3.708,6.103-7.567,7.578-11.578c1.263-3.406,1.895-7.917,1.895-13.532V63.252z"/>
</g>
<g>
	<path fill="#1B1464" d="M71.209,173.096c0-1.265,0.518-2.34,1.553-3.226c1.036-0.884,2.138-1.327,3.306-1.327H92.56
		c1.38,0,2.655,0.303,3.824,0.91c1.168,0.607,2.018,1.164,2.55,1.669c0.265,0.254,0.57,0.545,0.916,0.873
		c0.345,0.33,0.57,0.493,0.677,0.493c0.105,0,0.251-0.088,0.438-0.266c0.186-0.177,0.411-0.417,0.677-0.721
		c0.265-0.304,0.598-0.632,0.996-0.986c0.398-0.354,0.889-0.657,1.474-0.911c1.062-0.556,2.137-0.872,3.227-0.948
		c1.088-0.075,1.792-0.113,2.111-0.113h5.656c2.177,0,4.169,0.393,5.975,1.176c1.805,0.785,3.358,1.783,4.661,2.997
		c1.301,1.214,2.311,2.568,3.027,4.06c0.717,1.493,1.076,2.947,1.076,4.363v26.178c0,0.506-0.267,0.759-0.797,0.759h-8.046
		c-0.585,0-0.876-0.253-0.876-0.759v-25.191c0-0.809-0.187-1.529-0.558-2.163c-0.372-0.632-0.836-1.176-1.394-1.631
		s-1.169-0.797-1.833-1.024c-0.665-0.228-1.288-0.342-1.872-0.342h-5.258c-0.956,0-1.899,0.342-2.828,1.024
		c-0.93,0.684-1.394,1.683-1.394,2.997v26.33c0,0.506-0.267,0.759-0.797,0.759h-8.126c-0.532,0-0.797-0.253-0.797-0.759v-26.33
		c0-1.011-0.518-1.935-1.554-2.77c-1.036-0.834-2.165-1.252-3.386-1.252H83c-0.585,0-1.075,0.228-1.474,0.684
		c-0.398,0.455-0.598,0.986-0.598,1.593v28.075c0,0.506-0.266,0.759-0.796,0.759h-8.126c-0.531,0-0.796-0.253-0.796-0.759V173.096z"
		/>
	<path fill="#1B1464" d="M162.349,168.543h8.126c0.531,0,0.797,0.253,0.797,0.759v29.896c0,1.62-0.518,3.011-1.553,4.174
		c-1.036,1.164-2.391,2.124-4.064,2.883c-1.673,0.759-3.559,1.316-5.656,1.67c-2.099,0.353-4.21,0.53-6.333,0.53
		c-2.179,0-4.316-0.178-6.414-0.53c-2.099-0.354-3.971-0.911-5.616-1.67c-1.647-0.759-2.988-1.719-4.023-2.883
		c-1.036-1.163-1.554-2.554-1.554-4.174v-29.896c0-0.506,0.265-0.759,0.797-0.759h8.126c0.53,0,0.797,0.253,0.797,0.759v26.633
		c0,0.455,0.225,0.886,0.677,1.29c0.451,0.405,1.036,0.759,1.752,1.063c0.717,0.304,1.554,0.531,2.51,0.683s1.938,0.228,2.948,0.228
		c1.008,0,1.978-0.076,2.908-0.228c0.929-0.151,1.765-0.379,2.51-0.683c0.743-0.304,1.34-0.657,1.792-1.063
		c0.451-0.404,0.677-0.835,0.677-1.29v-26.633C161.552,168.796,161.817,168.543,162.349,168.543z"/>
	<path fill="#1B1464" d="M178.122,198.818h21.909c0.743,0,1.327-0.114,1.753-0.342c0.424-0.228,0.757-0.518,0.995-0.873
		c0.239-0.353,0.385-0.745,0.438-1.176c0.053-0.429,0.08-0.821,0.08-1.176c0-0.657-0.174-1.315-0.519-1.973
		c-0.346-0.657-1.049-0.986-2.11-0.986H188.16c-1.912,0-3.532-0.291-4.859-0.873c-1.328-0.581-2.39-1.391-3.187-2.428
		c-0.797-1.036-1.382-2.276-1.753-3.719c-0.372-1.441-0.558-3.021-0.558-4.742c0-2.528,0.305-4.577,0.916-6.146
		c0.61-1.567,1.54-2.782,2.788-3.643c1.248-0.859,2.841-1.441,4.78-1.745c1.938-0.304,4.263-0.455,6.972-0.455h17.208
		c0.53,0,0.797,0.253,0.797,0.759v7.739c0,0.506-0.267,0.759-0.797,0.759h-20.873c-0.851,0-1.462,0.292-1.833,0.873
		c-0.372,0.582-0.558,1.227-0.558,1.935c0,0.658,0.199,1.315,0.598,1.973c0.398,0.658,0.996,0.986,1.793,0.986h11.632
		c2.071,0,3.85,0.216,5.337,0.646c1.486,0.43,2.695,1.15,3.625,2.162c0.929,1.013,1.62,2.391,2.071,4.136s0.678,3.934,0.678,6.563
		c0,0.759-0.119,1.758-0.358,2.997c-0.239,1.24-0.678,2.454-1.314,3.642c-0.638,1.189-1.527,2.214-2.669,3.073
		c-1.143,0.861-2.617,1.29-4.422,1.29h-26.052c-0.531,0-0.797-0.253-0.797-0.759v-7.739
		C177.325,199.071,177.591,198.818,178.122,198.818z"/>
	<path fill="#1B1464" d="M219.868,153.671h8.126c0.53,0,0.797,0.253,0.797,0.759v7.739c0,0.506-0.267,0.759-0.797,0.759h-8.126
		c-0.532,0-0.797-0.253-0.797-0.759v-7.739C219.071,153.924,219.336,153.671,219.868,153.671z M219.071,169.302
		c0-0.506,0.265-0.759,0.797-0.759h8.126c0.53,0,0.797,0.253,0.797,0.759v38.015c0,0.506-0.267,0.759-0.797,0.759h-8.126
		c-0.532,0-0.797-0.253-0.797-0.759V169.302z"/>
	<path fill="#1B1464" d="M268.146,198.818c0.53,0,0.797,0.253,0.797,0.759v7.739c0,0.506-0.267,0.759-0.797,0.759h-14.978
		c-2.922,0-5.524-0.493-7.808-1.479c-2.284-0.986-4.223-2.276-5.816-3.87c-1.593-1.593-2.815-3.363-3.664-5.312
		c-0.851-1.946-1.275-3.882-1.275-5.805v-6.373c0-2.58,0.385-4.895,1.155-6.943c0.77-2.049,1.965-3.794,3.585-5.235
		c1.62-1.442,3.705-2.554,6.254-3.339c2.55-0.783,5.577-1.176,9.083-1.176h13.464c0.53,0,0.797,0.253,0.797,0.759v7.739
		c0,0.506-0.267,0.759-0.797,0.759h-15.058c-3.081,0-5.378,0.886-6.892,2.655c-1.514,1.771-2.271,3.946-2.271,6.526v3.263
		c0,2.529,0.729,4.59,2.191,6.184c1.46,1.594,3.784,2.391,6.971,2.391H268.146z"/>
</g>
<g>
	<path fill-rule="evenodd" clip-rule="evenodd" fill="#1B1464" d="M339.69,186.854c0,8.892-7.562,16.077-16.873,16.077
		c-9.328,0-16.879-7.186-16.879-16.077c0-8.872,7.551-16.058,16.879-16.058C332.129,170.796,339.69,177.981,339.69,186.854z"/>
</g>
<g>
	<g>
		<line fill="#1B1464" x1="343.56" y1="180.28" x2="343.56" y2="193.449"/>
		<rect x="341.56" y="180.28" fill="#FBB03B" width="4" height="13.169"/>
	</g>
	<g>
		<line fill="#1B1464" x1="349.568" y1="174.674" x2="349.568" y2="201.149"/>
		<rect x="347.568" y="174.674" fill="#FBB03B" width="4" height="26.476"/>
	</g>
	<g>
		<line fill="#1B1464" x1="356.007" y1="167.758" x2="356.007" y2="209.845"/>
		<rect x="354.007" y="167.758" fill="#FBB03B" width="4" height="42.087"/>
	</g>
	<g>
		<line fill="#1B1464" x1="363.477" y1="161.831" x2="363.477" y2="214.983"/>
		<rect x="361.477" y="161.831" fill="#FBB03B" width="4" height="53.152"/>
	</g>
</g>
<g>
	<g>
		<line fill="#1B1464" x1="301.781" y1="193.672" x2="301.781" y2="180.502"/>
		<rect x="299.781" y="180.502" fill="#FBB03B" width="4" height="13.17"/>
	</g>
	<g>
		<line fill="#1B1464" x1="295.768" y1="199.273" x2="295.768" y2="172.797"/>
		<rect x="293.768" y="172.797" fill="#FBB03B" width="4" height="26.477"/>
	</g>
	<g>
		<line fill="#1B1464" x1="289.333" y1="206.194" x2="289.333" y2="164.104"/>
		<rect x="287.333" y="164.104" fill="#FBB03B" width="4" height="42.091"/>
	</g>
	<g>
		<line fill="#1B1464" x1="281.865" y1="212.117" x2="281.865" y2="158.965"/>
		<rect x="279.865" y="158.965" fill="#FBB03B" width="4" height="53.152"/>
	</g>
</g>
</svg>
