<?xml version="1.0" encoding="utf-8"?>
<!-- Generator: Adobe Illustrator 16.0.0, SVG Export Plug-In . SVG Version: 6.00 Build 0)  -->
<!DOCTYPE svg PUBLIC "-//W3C//DTD SVG 1.1//EN" "http://www.w3.org/Graphics/SVG/1.1/DTD/svg11.dtd">
<svg version="1.1" id="Layer_1" xmlns="http://www.w3.org/2000/svg" xmlns:xlink="http://www.w3.org/1999/xlink" x="0px" y="0px"
	 width="451.592px" height="164.596px" viewBox="0 0 451.592 164.596" enable-background="new 0 0 451.592 164.596"
	 xml:space="preserve">
<g id="Layer_3">
</g>
<g id="Layer_2">
	<rect display="none" fill="#19BFF9" stroke="#FCFCFC" stroke-width="2" stroke-miterlimit="10" width="960" height="560"/>
	<g>
		<g>
			<g>
				<path stroke="#FCFCFC" stroke-width="2" stroke-miterlimit="10" d="M102.995,51.906c-0.328,0.206-0.629,0.277-0.902,0.215
					s-0.474-0.185-0.602-0.369c-0.128-0.184-0.183-0.42-0.164-0.707c0.019-0.286,0.137-0.574,0.355-0.861
					c0.291-0.574,0.528-1.168,0.711-1.783c0.182-0.615,0.236-1.292,0.164-2.03c-0.037-1.188-0.374-2.162-1.012-2.921
					c-0.638-0.758-1.431-1.301-2.378-1.629c-1.933-0.655-3.81-0.646-5.631,0.031c-1.823,0.676-3.546,1.752-5.167,3.229
					c-1.622,1.476-3.107,3.198-4.456,5.166s-2.479,3.896-3.389,5.78c-1.058,2.132-1.951,4.458-2.68,6.98
					c-0.729,2.521-1.13,4.95-1.202,7.287c-0.146,3.239,0.363,5.75,1.53,7.533c1.166,1.784,2.725,2.983,4.675,3.598
					c1.949,0.614,4.183,0.749,6.697,0.399c2.515-0.348,5.048-1.024,7.6-2.029c2.55-1.004,4.992-2.244,7.325-3.72
					c2.332-1.476,4.319-3.034,5.96-4.674c0.327-0.246,0.637-0.358,0.929-0.338c0.292,0.021,0.51,0.123,0.656,0.307
					c0.146,0.185,0.2,0.441,0.164,0.769c-0.037,0.329-0.201,0.676-0.492,1.045c-1.312,1.436-2.907,2.859-4.783,4.274
					c-1.878,1.414-3.882,2.716-6.015,3.905c-2.132,1.189-4.328,2.214-6.588,3.074c-2.26,0.861-4.447,1.445-6.561,1.754
					c-2.114,0.307-4.1,0.285-5.959-0.063c-1.858-0.349-3.426-1.117-4.701-2.306c-1.787-1.681-3.044-3.679-3.772-5.996
					c-0.729-2.315-1.039-4.775-0.93-7.379c0.109-2.603,0.583-5.289,1.422-8.056c0.838-2.768,1.913-5.442,3.226-8.025
					c0.874-1.722,1.958-3.525,3.253-5.412c1.293-1.885,2.715-3.628,4.264-5.227c1.549-1.599,3.207-2.941,4.976-4.028
					c1.768-1.086,3.581-1.691,5.439-1.814c1.859-0.123,3.59,0.185,5.194,0.922c1.604,0.738,2.852,1.763,3.744,3.075
					c0.894,1.313,1.321,2.839,1.285,4.581C105.144,48.207,104.416,50.021,102.995,51.906z"/>
			</g>
			<g>
				<path stroke="#FCFCFC" stroke-width="2" stroke-miterlimit="10" d="M101.194,100.224c0.291,0.246,0.473,0.504,0.546,0.77
					c0.073,0.268,0.073,0.522,0,0.769s-0.228,0.44-0.464,0.584c-0.238,0.145-0.52,0.216-0.848,0.216
					c-0.984,0.041-2.005,0.144-3.062,0.307c-1.058,0.164-2.051,0.195-2.979,0.093c-0.93-0.103-1.777-0.431-2.543-0.983
					c-0.765-0.555-1.349-1.508-1.749-2.86c-0.292-1.065-0.365-2.326-0.219-3.782c0.146-1.454,0.446-2.982,0.902-4.581
					c0.455-1.599,1.02-3.218,1.694-4.858c0.674-1.639,1.385-3.197,2.133-4.674c0.746-1.476,1.493-2.828,2.241-4.058
					c0.746-1.23,1.412-2.234,1.995-3.014c0.328-0.409,0.72-0.85,1.176-1.322c0.455-0.471,0.947-0.861,1.476-1.168
					c0.528-0.308,1.066-0.501,1.613-0.584c0.547-0.082,1.094,0.021,1.64,0.308c0.729,0.369,1.34,0.902,1.832,1.599
					c0.492,0.697,0.902,1.476,1.23,2.336c0.327,0.861,0.592,1.743,0.792,2.645c0.2,0.902,0.355,1.722,0.465,2.46
					c0.291,2.174,0.438,4.51,0.438,7.01c0,2.502-0.064,5.033-0.191,7.596c-0.128,2.563-0.265,5.104-0.41,7.625
					s-0.183,4.869-0.109,7.041v0.984c0.183-0.492,0.383-0.974,0.602-1.445c0.219-0.471,0.438-0.953,0.656-1.445
					c0.619-1.27,1.266-2.727,1.94-4.366c0.674-1.64,1.357-3.29,2.051-4.95c0.691-1.66,1.394-3.27,2.104-4.828
					c0.711-1.557,1.412-2.93,2.104-4.119c0.219-0.369,0.474-0.758,0.766-1.169c0.291-0.409,0.619-0.788,0.984-1.138
					c0.364-0.348,0.756-0.625,1.176-0.83c0.418-0.205,0.847-0.266,1.284-0.185c0.729,0.083,1.267,0.441,1.613,1.076
					c0.346,0.636,0.52,1.322,0.52,2.06c0,0.084-0.01,0.268-0.027,0.555c-0.02,0.287-0.027,0.491-0.027,0.614
					s-0.01,0.288-0.027,0.492c-0.02,0.206-0.047,0.349-0.082,0.431c0,0.492-0.01,1.332-0.027,2.521
					c-0.02,1.189-0.047,2.419-0.082,3.689c-0.037,1.476-0.074,3.074-0.109,4.797c0,0.574-0.01,1.25-0.027,2.029
					c-0.02,0.779-0.02,1.609,0,2.49c0.018,0.883,0.063,1.773,0.137,2.676c0.072,0.901,0.182,1.763,0.327,2.582
					c0.62-2.091,1.357-4.16,2.215-6.211c0.855-2.049,1.648-4.079,2.378-6.088c0.729-1.969,1.484-4.09,2.269-6.365
					s1.595-4.561,2.434-6.856c0.838-2.296,1.686-4.551,2.542-6.765c0.855-2.214,1.722-4.284,2.597-6.211
					c0.182-0.369,0.419-0.594,0.711-0.677c0.291-0.082,0.547-0.061,0.766,0.062c0.219,0.123,0.391,0.338,0.52,0.646
					c0.127,0.308,0.117,0.667-0.027,1.076c-0.839,1.968-1.659,4.08-2.461,6.334s-1.585,4.551-2.351,6.887
					c-0.766,2.337-1.513,4.664-2.241,6.98c-0.729,2.316-1.422,4.5-2.078,6.549c-0.874,2.747-1.759,5.535-2.651,8.363
					c-0.894,2.829-1.851,5.596-2.87,8.303c-0.766,0.983-1.622,1.188-2.569,0.614c-0.146-0.123-0.374-0.329-0.684-0.614
					c-0.311-0.288-0.557-0.534-0.738-0.738c-0.62-0.943-1.058-2.408-1.312-4.397c-0.256-1.987-0.41-4.151-0.465-6.487
					c-0.055-2.337-0.064-4.694-0.027-7.072c0.035-2.377,0.055-4.428,0.055-6.149c-1.131,2.255-2.124,4.448-2.979,6.58
					c-0.857,2.132-1.65,4.223-2.379,6.272c-0.729,2.051-1.458,4.059-2.187,6.026c-0.729,1.968-1.55,3.896-2.46,5.78
					c-0.62,1.354-1.148,2.184-1.586,2.49c-0.438,0.309-1.112,0.236-2.022-0.215c-0.62-0.451-1.085-1.128-1.395-2.029
					c-0.31-0.902-0.538-1.875-0.684-2.921s-0.228-2.06-0.246-3.044s-0.027-1.804-0.027-2.46c0-1.394,0.073-3.013,0.219-4.858
					c0.146-1.844,0.301-3.781,0.465-5.811s0.319-4.109,0.465-6.242c0.146-2.131,0.209-4.182,0.191-6.149
					c-0.019-1.968-0.146-3.802-0.383-5.504c-0.237-1.701-0.647-3.167-1.229-4.397c-0.365-0.738-0.984-0.83-1.859-0.277
					c-0.875,0.554-1.841,1.507-2.897,2.859c-1.058,1.353-2.114,2.974-3.171,4.858c-1.058,1.887-1.95,3.793-2.679,5.719
					c-0.729,1.928-1.213,3.731-1.449,5.412c-0.237,1.682-0.046,2.993,0.574,3.936c0.364,0.574,0.902,0.892,1.613,0.953
					c0.71,0.062,1.466,0.041,2.269-0.062c0.801-0.102,1.594-0.204,2.378-0.308C99.981,99.907,100.647,99.979,101.194,100.224z"/>
			</g>
		</g>
		<g>
			<path fill="#00C9FF" d="M107.26,5.108c-41.421,0-75,33.579-75,75c0,41.421,33.579,75,75,75c41.422,0,75-33.579,75-75
				C182.26,38.687,148.682,5.108,107.26,5.108z M107.067,142.454c-33.139,0-60-27.918-60-62.359c0-34.44,26.861-62.359,60-62.359
				c33.136,0,60,27.919,60,62.359C167.067,114.536,140.203,142.454,107.067,142.454z"/>
			<path d="M107.26,156.108c-41.907,0-76-34.094-76-76c0-41.907,34.093-76,76-76c41.906,0,76,34.093,76,76
				C183.26,122.015,149.167,156.108,107.26,156.108z M107.26,6.108c-40.804,0-74,33.196-74,74s33.196,74,74,74s74-33.196,74-74
				S148.064,6.108,107.26,6.108z M107.067,143.454c-33.636,0-61-28.423-61-63.359s27.364-63.359,61-63.359s61,28.423,61,63.359
				S140.703,143.454,107.067,143.454z M107.067,18.735c-32.533,0-59,27.526-59,61.359c0,33.834,26.467,61.359,59,61.359
				c32.532,0,59-27.525,59-61.359C166.067,46.261,139.599,18.735,107.067,18.735z"/>
		</g>
		<g>
			<g>
				<path fill="#00C9FF" d="M207.26,75.775c0-38.844-44.771-70.333-100-70.333s-100,31.489-100,70.333
					c0,38.845,44.771,70.334,100,70.334c4.598,0,9.12-0.223,13.553-0.646c-2.6,0.159-5.228,0.245-7.885,0.245
					c-49.706,0-90-28.341-90-63.3c0-34.96,40.294-63.301,90-63.301c49.705,0,90,28.34,90,63.301
					c0,12.666-5.293,24.462-14.403,34.357C200.314,105.226,207.26,91.071,207.26,75.775z"/>
				<path d="M107.26,147.109c-55.691,0-101-32.001-101-71.334c0-39.333,45.309-71.333,101-71.333s101,32,101,71.333
					c0,15.093-6.582,29.515-19.036,41.706l-1.435-1.393c9.249-10.047,14.139-21.693,14.139-33.68c0-34.353-39.925-62.301-89-62.301
					c-49.075,0-89,27.948-89,62.301c0,34.352,39.925,62.3,89,62.3c2.556,0,5.188-0.082,7.823-0.243l0.156,1.993
					C116.386,146.891,111.794,147.109,107.26,147.109z M107.26,6.442c-54.589,0-99,31.103-99,69.333
					c0,31.897,30.916,58.834,72.865,66.883c-34.542-9.133-59.197-32.694-59.197-60.249c0-35.456,40.822-64.301,91-64.301
					s91,28.845,91,64.301c0,4.854-0.765,9.648-2.263,14.311c3.035-6.709,4.595-13.752,4.595-20.944
					C206.26,37.545,161.849,6.442,107.26,6.442z"/>
			</g>
			<g>
				<path fill="#00C9FF" d="M188.525,116.767c-15.658,15.328-39.863,26.043-67.712,28.697
					C149.212,143.73,173.834,132.723,188.525,116.767z"/>
				<path d="M120.874,146.462l-0.155-1.993c26.81-2.556,51.27-12.913,67.107-28.417l1.435,1.393
					C173.859,134.173,148.933,144.749,120.874,146.462z"/>
			</g>
		</g>
	</g>
	<g>
		<path stroke="#06CAFF" stroke-width="2" stroke-miterlimit="10" d="M276.217,70.991c-0.363,0.205-0.697,0.276-1,0.215
			s-0.525-0.185-0.666-0.369c-0.143-0.185-0.203-0.42-0.182-0.707c0.02-0.286,0.15-0.573,0.393-0.861
			c0.324-0.573,0.586-1.168,0.789-1.783c0.201-0.614,0.262-1.291,0.182-2.029c-0.041-1.188-0.416-2.162-1.121-2.921
			c-0.707-0.758-1.586-1.301-2.637-1.63c-2.141-0.655-4.221-0.646-6.24,0.031c-2.021,0.676-3.93,1.752-5.727,3.229
			c-1.799,1.476-3.445,3.197-4.939,5.165s-2.746,3.896-3.756,5.781c-1.172,2.132-2.162,4.458-2.969,6.979
			c-0.809,2.521-1.254,4.95-1.334,7.287c-0.162,3.239,0.404,5.75,1.697,7.533s3.02,2.982,5.18,3.598
			c2.162,0.615,4.637,0.748,7.424,0.399c2.787-0.348,5.594-1.024,8.422-2.029c2.828-1.004,5.535-2.244,8.121-3.721
			c2.584-1.476,4.785-3.033,6.604-4.673c0.363-0.246,0.707-0.358,1.031-0.339c0.322,0.021,0.564,0.123,0.727,0.308
			c0.16,0.185,0.221,0.441,0.182,0.769c-0.041,0.329-0.223,0.677-0.545,1.046c-1.455,1.436-3.223,2.859-5.303,4.273
			c-2.08,1.415-4.303,2.717-6.666,3.905c-2.363,1.189-4.797,2.214-7.301,3.075c-2.506,0.86-4.93,1.444-7.271,1.752
			c-2.344,0.308-4.545,0.286-6.605-0.062c-2.059-0.349-3.797-1.117-5.211-2.306c-1.979-1.681-3.373-3.68-4.18-5.996
			c-0.809-2.315-1.152-4.775-1.031-7.379s0.646-5.289,1.576-8.057c0.928-2.767,2.121-5.442,3.574-8.025
			c0.971-1.722,2.172-3.525,3.605-5.411c1.434-1.885,3.01-3.628,4.727-5.228c1.717-1.599,3.555-2.94,5.514-4.027
			c1.959-1.086,3.969-1.691,6.029-1.814s3.979,0.185,5.758,0.923c1.775,0.738,3.16,1.763,4.15,3.074
			c0.988,1.313,1.463,2.84,1.424,4.582C278.6,67.291,277.792,69.105,276.217,70.991z"/>
		<path stroke="#06CAFF" stroke-width="2" stroke-miterlimit="10" d="M291.124,84.95c0,0.041,0.01,0.083,0.029,0.123
			c0.02,0.041,0.031,0.083,0.031,0.123c2.182-1.024,4.453-1.876,6.816-2.552c2.363-0.677,4.695-1.302,6.998-1.876
			c0.729,0,1.182,0.298,1.363,0.892c0.182,0.595-0.051,1.076-0.695,1.445c-1.537,0.656-3.082,1.313-4.637,1.968
			c-1.555,0.656-3.1,1.374-4.635,2.152c0.523,0.82,0.746,1.743,0.666,2.768c-0.082,1.025-0.264,2.009-0.545,2.951
			c-0.242,0.779-0.586,1.61-1.031,2.491c-0.443,0.882-0.969,1.722-1.574,2.521c-0.605,0.799-1.283,1.517-2.029,2.152
			c-0.748,0.636-1.506,1.097-2.273,1.384c-0.484,0.205-1.01,0.307-1.576,0.307c-0.564,0-1.131,0.042-1.695,0.123
			c-0.445-0.081-0.789-0.185-1.031-0.308c-0.242-0.122-0.525-0.348-0.848-0.676c-0.203-0.369-0.445-0.728-0.727-1.076
			c-0.283-0.348-0.484-0.728-0.605-1.138c-0.324-1.065-0.355-2.307-0.092-3.721c0.262-1.414,0.686-2.839,1.271-4.274
			c0.586-1.435,1.273-2.776,2.061-4.027c0.789-1.25,1.545-2.245,2.273-2.982c0.807-0.738,1.514-0.636,2.121,0.308L291.124,84.95z
			 M290.516,89.624c-0.848-0.409-1.332-0.984-1.453-1.722c-0.688,1.436-1.172,2.973-1.455,4.612s-0.404,3.238-0.363,4.796
			c0.525-0.081,1.039-0.338,1.545-0.769c0.506-0.43,0.959-0.932,1.363-1.506s0.768-1.169,1.092-1.784
			c0.322-0.614,0.584-1.146,0.787-1.599c0.283-0.615,0.443-1.168,0.484-1.66V89.87c-0.324-0.082-0.666-0.112-1.029-0.093
			C291.124,89.799,290.799,89.747,290.516,89.624z"/>
		<path stroke="#06CAFF" stroke-width="2" stroke-miterlimit="10" d="M303,97.864c-0.363,0.083-0.666,0.042-0.908-0.123
			c-0.244-0.163-0.426-0.369-0.547-0.614c-0.121-0.246-0.15-0.523-0.09-0.831c0.061-0.307,0.232-0.584,0.514-0.83
			c0.445-0.778,1.021-1.916,1.729-3.413c0.705-1.496,1.424-3.054,2.15-4.673s1.434-3.146,2.121-4.582
			c0.686-1.435,1.232-2.46,1.637-3.074c0.928-0.738,1.896-0.778,2.908-0.123c1.049,1.436,1.938,2.665,2.666,3.689
			c0.727,1.025,1.303,1.979,1.727,2.859c0.424,0.882,0.717,1.732,0.879,2.552c0.16,0.821,0.211,1.732,0.15,2.737
			s-0.211,2.152-0.453,3.443s-0.547,2.84-0.91,4.643c1.172-0.245,2.322-0.594,3.455-1.045c1.129-0.451,2.262-0.901,3.393-1.353
			c0.404-0.164,0.758-0.175,1.061-0.031c0.303,0.145,0.516,0.338,0.637,0.584s0.141,0.533,0.061,0.861
			c-0.082,0.328-0.303,0.595-0.668,0.8c-1.414,0.82-2.848,1.619-4.301,2.397c-1.455,0.779-2.949,1.455-4.484,2.029
			c-0.525,0.082-0.949,0.071-1.273-0.03c-0.322-0.103-0.686-0.338-1.09-0.707c-0.605-0.574-0.969-1.188-1.09-1.845
			c-0.121-0.655-0.143-1.322-0.061-1.999c0.08-0.677,0.221-1.373,0.424-2.091c0.201-0.717,0.342-1.445,0.424-2.183
			c0.121-1.066,0.182-2.05,0.182-2.952c0-0.901-0.07-1.753-0.213-2.552c-0.141-0.8-0.383-1.6-0.727-2.398
			c-0.344-0.8-0.799-1.65-1.363-2.553c-0.324,0.452-0.818,1.354-1.484,2.706c-0.666,1.354-1.395,2.789-2.182,4.305
			c-0.787,1.518-1.566,2.911-2.332,4.182C304.172,96.922,303.524,97.66,303,97.864z"/>
		<path stroke="#06CAFF" stroke-width="2" stroke-miterlimit="10" d="M336.872,86.181c-0.484,1.066-1.02,2.132-1.605,3.197
			c-0.586,1.066-1.232,2.04-1.939,2.921c-0.707,0.883-1.484,1.66-2.332,2.337s-1.818,1.159-2.908,1.445
			c0,0.656,0.049,1.333,0.15,2.029c0.102,0.697,0.293,1.282,0.576,1.753c0.281,0.472,0.686,0.769,1.211,0.892s1.191-0.062,2-0.554
			c0.283-0.163,0.717-0.44,1.303-0.83c0.586-0.389,1.213-0.851,1.879-1.384c0.666-0.532,1.293-1.116,1.879-1.753
			c0.584-0.635,1.039-1.26,1.363-1.875c0.16-0.369,0.395-0.554,0.697-0.554s0.574,0.123,0.816,0.369
			c0.244,0.246,0.404,0.554,0.486,0.922c0.08,0.369,0,0.718-0.242,1.046c-0.244,0.492-0.678,1.087-1.303,1.783
			c-0.627,0.697-1.283,1.384-1.971,2.061c-0.688,0.676-1.363,1.291-2.029,1.845s-1.182,0.912-1.545,1.076
			c-0.082,0.04-0.242,0.123-0.484,0.246s-0.516,0.266-0.818,0.431c-0.303,0.163-0.617,0.307-0.939,0.43
			c-0.324,0.123-0.605,0.185-0.848,0.185c-0.891,0-1.697-0.175-2.424-0.522c-0.729-0.349-1.355-0.82-1.879-1.414
			c-0.525-0.594-0.949-1.281-1.273-2.061c-0.322-0.778-0.525-1.599-0.605-2.46c-0.041-0.286-0.07-0.563-0.09-0.83
			c-0.021-0.266-0.031-0.543-0.031-0.83c-0.283-0.205-0.424-0.481-0.424-0.83c0-0.348,0.121-0.646,0.363-0.892
			c0-0.615,0.031-1.23,0.092-1.845c0.061-0.615,0.189-1.25,0.393-1.906c0.283-1.066,0.697-2.357,1.242-3.875
			c0.545-1.516,1.242-2.951,2.092-4.305c0.848-1.353,1.848-2.479,2.998-3.382c1.152-0.901,2.455-1.271,3.908-1.107
			c0.93,0.083,1.615,0.452,2.061,1.107c0.443,0.656,0.727,1.414,0.848,2.275c0.123,0.86,0.111,1.743-0.029,2.645
			C337.366,84.869,337.155,85.606,336.872,86.181z M333.297,83.044c-0.484,0.41-0.971,0.984-1.455,1.722
			c-0.484,0.738-0.939,1.559-1.363,2.46c-0.424,0.902-0.797,1.835-1.121,2.798c-0.324,0.964-0.586,1.855-0.787,2.676
			c0.322-0.328,0.666-0.738,1.029-1.23s0.768-1.127,1.213-1.906c0.201-0.327,0.443-0.758,0.727-1.291
			c0.283-0.532,0.555-1.107,0.818-1.723c0.262-0.614,0.484-1.229,0.666-1.845C333.206,84.09,333.297,83.536,333.297,83.044z"/>
		<path stroke="#06CAFF" stroke-width="2" stroke-miterlimit="10" d="M364.744,86.058c0.323,0.246,0.524,0.502,0.606,0.769
			c0.08,0.267,0.08,0.522,0,0.769c-0.082,0.246-0.253,0.441-0.516,0.584c-0.263,0.145-0.575,0.216-0.938,0.216
			c-1.091,0.041-2.223,0.144-3.394,0.307c-1.172,0.165-2.272,0.195-3.303,0.093c-1.03-0.102-1.969-0.431-2.817-0.984
			c-0.849-0.553-1.495-1.506-1.939-2.859c-0.323-1.065-0.404-2.326-0.242-3.782c0.161-1.454,0.494-2.982,1-4.581
			c0.505-1.599,1.131-3.218,1.878-4.858c0.747-1.639,1.535-3.197,2.363-4.674c0.828-1.476,1.656-2.828,2.484-4.059
			c0.828-1.229,1.565-2.233,2.212-3.013c0.363-0.409,0.797-0.851,1.303-1.322c0.505-0.472,1.05-0.861,1.636-1.169
			c0.586-0.307,1.182-0.501,1.788-0.584c0.605-0.082,1.212,0.021,1.817,0.308c0.808,0.369,1.485,0.902,2.03,1.599
			c0.545,0.697,1,1.477,1.363,2.337c0.363,0.861,0.656,1.743,0.879,2.645c0.222,0.902,0.394,1.722,0.515,2.46
			c0.323,2.173,0.485,4.51,0.485,7.011s-0.071,5.032-0.213,7.595s-0.293,5.104-0.454,7.625c-0.162,2.521-0.202,4.869-0.121,7.041
			v0.984c0.201-0.492,0.424-0.974,0.666-1.445c0.243-0.471,0.485-0.953,0.728-1.445c0.687-1.271,1.403-2.726,2.151-4.366
			c0.747-1.639,1.504-3.29,2.272-4.95c0.767-1.66,1.545-3.269,2.332-4.827c0.788-1.558,1.565-2.931,2.333-4.12
			c0.242-0.369,0.524-0.759,0.849-1.169c0.323-0.409,0.687-0.789,1.091-1.138c0.403-0.348,0.838-0.624,1.303-0.83
			c0.464-0.205,0.939-0.266,1.424-0.185c0.808,0.083,1.403,0.441,1.787,1.076c0.384,0.637,0.576,1.322,0.576,2.061
			c0,0.082-0.011,0.267-0.03,0.553c-0.021,0.288-0.03,0.492-0.03,0.615s-0.011,0.287-0.03,0.492
			c-0.021,0.205-0.052,0.349-0.091,0.431c0,0.492-0.011,1.332-0.03,2.521c-0.021,1.189-0.052,2.419-0.091,3.689
			c-0.041,1.476-0.082,3.074-0.121,4.797c0,0.574-0.011,1.251-0.03,2.029c-0.021,0.779-0.021,1.609,0,2.49
			c0.02,0.882,0.069,1.773,0.151,2.675c0.08,0.902,0.201,1.764,0.363,2.583c0.687-2.091,1.505-4.16,2.454-6.211
			c0.948-2.05,1.827-4.079,2.636-6.088c0.808-1.968,1.646-4.09,2.515-6.365c0.868-2.275,1.767-4.56,2.696-6.856
			c0.929-2.296,1.868-4.551,2.817-6.765s1.909-4.283,2.879-6.211c0.201-0.369,0.464-0.594,0.787-0.677
			c0.323-0.081,0.606-0.062,0.849,0.062s0.434,0.338,0.575,0.646c0.142,0.307,0.131,0.666-0.03,1.075
			c-0.93,1.969-1.838,4.08-2.727,6.334c-0.889,2.256-1.757,4.551-2.605,6.888c-0.848,2.337-1.677,4.664-2.484,6.98
			c-0.809,2.316-1.575,4.499-2.303,6.549c-0.969,2.747-1.949,5.534-2.938,8.363c-0.99,2.829-2.051,5.597-3.181,8.302
			c-0.849,0.984-1.799,1.188-2.849,0.615c-0.162-0.123-0.414-0.328-0.757-0.615c-0.344-0.287-0.617-0.533-0.818-0.737
			c-0.688-0.943-1.172-2.408-1.454-4.397c-0.283-1.988-0.455-4.15-0.516-6.487s-0.07-4.694-0.03-7.072
			c0.04-2.377,0.061-4.428,0.061-6.149c-1.252,2.255-2.354,4.448-3.302,6.58c-0.95,2.132-1.828,4.223-2.636,6.272
			c-0.809,2.051-1.616,4.059-2.424,6.026c-0.809,1.968-1.718,3.896-2.727,5.78c-0.688,1.354-1.272,2.184-1.758,2.491
			c-0.484,0.308-1.232,0.235-2.242-0.216c-0.687-0.451-1.202-1.128-1.545-2.029c-0.344-0.902-0.597-1.875-0.757-2.921
			c-0.162-1.045-0.253-2.06-0.273-3.044c-0.021-0.983-0.03-1.804-0.03-2.46c0-1.394,0.081-3.013,0.242-4.858
			c0.161-1.845,0.334-3.781,0.516-5.811s0.354-4.11,0.515-6.242c0.161-2.131,0.232-4.182,0.212-6.149s-0.161-3.803-0.424-5.504
			s-0.718-3.167-1.363-4.397c-0.404-0.737-1.091-0.83-2.061-0.276c-0.969,0.554-2.04,1.507-3.211,2.859
			c-1.172,1.354-2.344,2.974-3.515,4.858c-1.172,1.886-2.161,3.793-2.969,5.719c-0.809,1.928-1.344,3.731-1.606,5.412
			c-0.263,1.682-0.051,2.993,0.637,3.936c0.403,0.574,1,0.892,1.787,0.953c0.788,0.062,1.626,0.041,2.515-0.062
			c0.889-0.102,1.767-0.204,2.636-0.308C363.4,85.74,364.138,85.812,364.744,86.058z"/>
		<path stroke="#06CAFF" stroke-width="2" stroke-miterlimit="10" d="M416.309,86.181c-0.484,1.066-1.021,2.132-1.605,3.197
			c-0.586,1.066-1.233,2.04-1.939,2.921c-0.707,0.883-1.484,1.66-2.333,2.337c-0.848,0.677-1.817,1.159-2.908,1.445
			c0,0.656,0.05,1.333,0.151,2.029c0.101,0.697,0.293,1.282,0.575,1.753c0.282,0.472,0.687,0.769,1.212,0.892s1.191-0.062,2-0.554
			c0.282-0.163,0.717-0.44,1.303-0.83c0.585-0.389,1.212-0.851,1.879-1.384c0.666-0.532,1.292-1.116,1.878-1.753
			c0.585-0.635,1.04-1.26,1.363-1.875c0.161-0.369,0.395-0.554,0.697-0.554s0.575,0.123,0.817,0.369
			c0.243,0.246,0.403,0.554,0.485,0.922c0.08,0.369,0,0.718-0.242,1.046c-0.243,0.492-0.678,1.087-1.303,1.783
			c-0.627,0.697-1.283,1.384-1.97,2.061c-0.688,0.676-1.363,1.291-2.03,1.845c-0.666,0.554-1.182,0.912-1.545,1.076
			c-0.081,0.04-0.242,0.123-0.484,0.246s-0.516,0.266-0.818,0.431c-0.303,0.163-0.616,0.307-0.939,0.43s-0.605,0.185-0.848,0.185
			c-0.89,0-1.697-0.175-2.424-0.522c-0.728-0.349-1.354-0.82-1.879-1.414c-0.525-0.594-0.949-1.281-1.272-2.061
			c-0.323-0.778-0.525-1.599-0.605-2.46c-0.041-0.286-0.071-0.563-0.091-0.83c-0.021-0.266-0.03-0.543-0.03-0.83
			c-0.283-0.205-0.425-0.481-0.425-0.83c0-0.348,0.121-0.646,0.364-0.892c0-0.615,0.03-1.23,0.091-1.845
			c0.061-0.615,0.19-1.25,0.394-1.906c0.282-1.066,0.697-2.357,1.242-3.875c0.545-1.516,1.242-2.951,2.091-4.305
			c0.848-1.353,1.848-2.479,2.999-3.382c1.151-0.901,2.454-1.271,3.908-1.107c0.929,0.083,1.615,0.452,2.061,1.107
			c0.443,0.656,0.727,1.414,0.848,2.275c0.122,0.86,0.111,1.743-0.03,2.645C416.803,84.869,416.591,85.606,416.309,86.181z
			 M412.734,83.044c-0.484,0.41-0.97,0.984-1.454,1.722c-0.484,0.738-0.939,1.559-1.363,2.46c-0.425,0.902-0.798,1.835-1.121,2.798
			c-0.324,0.964-0.586,1.855-0.788,2.676c0.323-0.328,0.667-0.738,1.03-1.23s0.767-1.127,1.212-1.906
			c0.202-0.327,0.444-0.758,0.728-1.291c0.282-0.532,0.555-1.107,0.817-1.723c0.263-0.614,0.485-1.229,0.667-1.845
			C412.643,84.09,412.734,83.536,412.734,83.044z"/>
		<path stroke="#06CAFF" stroke-width="2" stroke-miterlimit="10" d="M437.395,70.745c-1.333,2.214-2.869,4.243-4.605,6.088
			c-1.737,1.845-3.555,3.649-5.453,5.411l-0.303,2.091c0.767-0.942,1.615-1.752,2.545-2.429c0.929-0.677,1.857-1.076,2.787-1.199
			c0.929-0.123,1.817,0.103,2.666,0.677s1.575,1.64,2.182,3.197c0.322,0.821,0.484,1.814,0.484,2.982
			c0,1.169-0.132,2.379-0.394,3.629c-0.264,1.251-0.646,2.48-1.151,3.689c-0.506,1.21-1.081,2.245-1.727,3.105
			c0.767-0.123,1.523-0.246,2.271-0.369c0.747-0.123,1.505-0.266,2.272-0.43c0.728,0,1.182,0.298,1.363,0.892
			c0.182,0.595-0.051,1.076-0.696,1.444c-2.788,0.698-5.575,1.252-8.362,1.661c-0.324,0.246-0.657,0.451-1,0.614
			c-0.344,0.165-0.677,0.308-1,0.431c-0.687,0.246-1.363,0.349-2.029,0.308c-0.667-0.04-1.344-0.102-2.03-0.185
			c-0.323,0.942-0.707,1.64-1.151,2.091c-1.575,0.984-2.808,0.615-3.696-1.106c-0.242,0.04-0.354-0.698-0.333-2.214
			c0.02-1.517,0.182-3.525,0.484-6.027c0.304-2.5,0.717-5.328,1.242-8.486c0.525-3.156,1.161-6.354,1.909-9.593
			c0.747-3.238,1.596-6.354,2.545-9.348c0.948-2.992,1.989-5.555,3.12-7.687c0.565-0.984,1.212-1.988,1.939-3.014
			c0.728-1.024,1.555-1.864,2.484-2.521c0.767-0.533,1.575-0.801,2.424-0.801s1.615,0.195,2.303,0.585
			c0.687,0.39,1.251,0.953,1.696,1.69c0.444,0.738,0.646,1.579,0.606,2.521c-0.082,2.297-0.364,4.428-0.849,6.396
			C439.456,66.81,438.607,68.777,437.395,70.745z M432.547,85.012c-0.162-0.081-0.445,0.164-0.849,0.738
			c-0.404,0.574-0.869,1.343-1.394,2.306c-0.525,0.964-1.051,2.04-1.575,3.229c-0.525,1.189-0.99,2.316-1.394,3.383
			c-0.404,1.066-0.728,1.998-0.97,2.798s-0.303,1.302-0.182,1.507l2.908-0.369c1.373-0.738,2.565-2.357,3.575-4.858
			c0.161-0.409,0.354-1.045,0.576-1.906c0.221-0.861,0.373-1.742,0.454-2.645c0.08-0.901,0.05-1.752-0.091-2.552
			C433.465,85.842,433.113,85.299,432.547,85.012z M426.367,97.249c0-0.04,0.01-0.07,0.03-0.092c0.02-0.021,0.03-0.051,0.03-0.092
			c-0.041,0.082-0.071,0.153-0.091,0.215C426.316,97.342,426.326,97.332,426.367,97.249z M436.183,57.893
			c-1.172,0.943-2.182,2.143-3.03,3.598c-0.848,1.455-1.585,3.054-2.211,4.796c-0.627,1.743-1.162,3.588-1.606,5.535
			s-0.848,3.864-1.212,5.75c1.212-1.312,2.354-2.645,3.424-3.998c1.07-1.353,2.03-2.787,2.879-4.305
			c0.524-0.983,0.938-1.885,1.242-2.705c0.303-0.82,0.534-1.619,0.696-2.398c0.161-0.778,0.263-1.578,0.303-2.398
			c0.04-0.819,0.081-1.722,0.121-2.706c-0.04-0.123-0.061-0.256-0.061-0.399s-0.021-0.276-0.061-0.399
			c-0.04-0.164-0.061-0.309-0.061-0.432C436.445,57.83,436.304,57.852,436.183,57.893z"/>
	</g>
</g>
</svg>
